# xmcd CD database file
#
# Track frame offsets:
#	182
#	4167
#	74047
#	126130
#	162247
#	222152
#
# Disc length: 4669 seconds
#
# Revision: 3
# Processed by: cddbd v1.5.1PL0 Copyright (c) Steve Scherf et al.
# Submitted via: CDex 1.51
#
DISCID=53123b06
DTITLE=Elvin Jones - Live At The Lighthouse, Volume 2
DYEAR=1992
DGENRE=Jazz
TTITLE0=Happy Birthday
TTITLE1=Sweet Mama
TTITLE2=I'm a Fool to Want You
TTITLE3=The Children, Save the Children
TTITLE4=Brite Piece
TTITLE5=Children's Merry-Go-Round
EXTD=YEAR: 1992
EXTT0=
EXTT1=
EXTT2=
EXTT3=
EXTT4=
EXTT5=
PLAYORDER=
